PathFileType	4	(X/Y/Z)	/Users/itak/Documents/Research/Walk-IL/dataset/trc/00335_00011.trc
DataRate	CameraRate	NumFrames	NumMarkers	Units	OrigDataRate	OrigDataStartFrame	OrigNumFrames
100.000000	100.000000	4	55	mm	100.000000	134	537
Frame#	Time	RPSI			LPSI			L3			STRN			T10			C7			CLAV			RBAK			LBAK			LSHO			LUPA			LAEL			LAOL			LWTS			LWPS			LFRA			LIFD			LHPS			LHTS			RSHO			RUPA			RAEL			RAOL			RWTS			RWPS			RFRA			RIFD			RHTS			RHPS			RBHD			LFHD			RFHD			LBHD			LHIP			RHIP			RASI			LASI			LKNE			LTHI			LANK			LTIP			LTOE			LMT5			LHEE			RKNE			RTHI			RANK			RTIP			RTOE			RMT1			RMT5			RHEE			LMT1			*53			*54			
		X1	Y1	Z1	X2	Y2	Z2	X3	Y3	Z3	X4	Y4	Z4	X5	Y5	Z5	X6	Y6	Z6	X7	Y7	Z7	X8	Y8	Z8	X9	Y9	Z9	X10	Y10	Z10	X11	Y11	Z11	X12	Y12	Z12	X13	Y13	Z13	X14	Y14	Z14	X15	Y15	Z15	X16	Y16	Z16	X17	Y17	Z17	X18	Y18	Z18	X19	Y19	Z19	X20	Y20	Z20	X21	Y21	Z21	X22	Y22	Z22	X23	Y23	Z23	X24	Y24	Z24	X25	Y25	Z25	X26	Y26	Z26	X27	Y27	Z27	X28	Y28	Z28	X29	Y29	Z29	X30	Y30	Z30	X31	Y31	Z31	X32	Y32	Z32	X33	Y33	Z33	X34	Y34	Z34	X35	Y35	Z35	X36	Y36	Z36	X37	Y37	Z37	X38	Y38	Z38	X39	Y39	Z39	X40	Y40	Z40	X41	Y41	Z41	X42	Y42	Z42	X43	Y43	Z43	X44	Y44	Z44	X45	Y45	Z45	X46	Y46	Z46	X47	Y47	Z47	X48	Y48	Z48	X49	Y49	Z49	X50	Y50	Z50	X51	Y51	Z51	X52	Y52	Z52	X53	Y53	Z53	X54	Y54	Z54	X55	Y55	Z55	

135	1.34	869.7122192382812	972.0166625976562	172.6716156005859	871.4378051757812	971.9408569335938	43.862060546875	868.4627685546875	1023.141540527344	112.5454635620117	1086.917114257812	1217.605346679688	94.61894989013672	848.8040161132812	1142.443237304688	102.3442153930664	877.3676147460938	1391.783325195312	80.86097717285156	1037.337890625	1340.547973632812	87.83806610107422	836.1907958984375	1253.894897460938	152.3556060791016	870.9205932617188	1351.405639648438	-20.18605804443359	956.2960205078125	1371.48193359375	-76.44303894042969	946.5354614257812	1249.191284179688	-141.6656799316406	976.995849609375	1045.425170898438	-144.628662109375	911.8485717773438	1031.67919921875	-91.11989593505859	1077.231811523438	806.5421752929688	-83.45146179199219	1043.665893554688	793.467529296875	-142.7473602294922	997.4590454101562	942.1134033203125	-146.4241180419922	1084.090698242188	645.6946411132812	-75.23603820800781	1042.057495117188	722.9407958984375	-135.3381195068359	1092.031616210938	728.2449340820312	-96.53658294677734	938.6585693359375	1383.557495117188	244.1745452880859	931.169921875	1320.065063476562	310.2946166992188	951.5465087890625	1052.3134765625	345.848876953125	903.9461059570312	1043.306274414062	264.3856506347656	1062.775756835938	827.3019409179688	286.8577270507812	1035.708618164062	810.8787841796875	356.58203125	980.625244140625	985.3583374023438	352.1200256347656	1084.334594726562	654.2461547851562	294.9814453125	1095.571411132812	726.9630737304688	297.3887634277344	1051.76123046875	727.24853515625	351.8189086914062	903.583740234375	1596.374389648438	159.6475067138672	1073.501831054688	1622.734252929688	42.07968902587891	1062.9951171875	1623.76611328125	142.6832885742188	891.9744262695312	1587.6005859375	15.90804576873779	963.7847900390625	911.6703491210938	-57.04978561401367	950.8858642578125	917.3458862304688	282.0214538574219	1054.257568359375	946.684326171875	238.7835083007812	1078.242431640625	940.0787963867188	-1.401246428489685	985.8455810546875	453.42626953125	-42.82376098632812	966.137451171875	585.6837768554688	-52.09316635131836	898.485107421875	38.47045516967773	-21.74324417114258	940.6710815429688	239.3263244628906	-44.54799652099609	1105.110229492188	31.93886947631836	37.16393280029297	1024.313842773438	34.29873275756836	-34.9512939453125	864.748291015625	32.98117446899414	45.66099548339844	976.53662109375	453.0104370117188	256.5346984863281	1040.588134765625	714.1913452148438	277.5163879394531	903.6698608398438	44.38236618041992	228.0421600341797	976.4663696289062	334.7643432617188	248.1280822753906	1096.993408203125	32.39997482299805	182.4980316162109	1042.1455078125	30.12042999267578	140.5298767089844	1002.643920898438	28.92575073242188	251.8630981445312	852.9645385742188	44.29961013793945	180.7234649658203	1035.4921875	19.61255645751953	77.573974609375	nan	nan	nan	nan	nan	nan	
136	1.35	869.0472412109375	972.1857299804688	172.9980316162109	871.1094360351562	972.0742797851562	44.15960693359375	868.2322387695312	1023.269104003906	112.8272705078125	1086.57958984375	1217.651245117188	94.79151153564453	848.6124877929688	1142.573974609375	102.5520706176758	877.0369873046875	1391.91552734375	81.01272583007812	1037.035400390625	1340.664184570312	87.93104553222656	835.9512939453125	1254.033325195312	152.5069885253906	870.5828247070312	1351.502075195312	-20.03803634643555	955.996826171875	1371.551513671875	-76.33988952636719	946.160400390625	1249.229614257812	-141.5285949707031	976.589599609375	1045.49560546875	-144.5221252441406	911.519287109375	1031.764526367188	-90.95961761474609	1077.07275390625	806.7295532226562	-83.20767211914062	1043.493774414062	793.6052856445312	-142.5094451904297	997.1354370117188	942.1780395507812	-146.2797546386719	1084.110595703125	645.9756469726562	-74.94745635986328	1041.940063476562	723.0833129882812	-135.0517578125	1091.981323242188	728.4618530273438	-96.28369903564453	938.5068359375	1383.645629882812	244.3131561279297	930.9136962890625	1320.194702148438	310.3733520507812	951.4568481445312	1052.426513671875	346.131591796875	903.6187744140625	1043.380249023438	264.8479919433594	1062.755126953125	827.490234375	287.064208984375	1035.809204101562	811.0841064453125	356.9214477539062	980.6972045898438	985.5902099609375	352.4795837402344	1084.389404296875	654.4046630859375	295.2796936035156	1095.582885742188	727.1908569335938	297.6683959960938	1051.9541015625	727.5111694335938	352.25830078125	903.2339477539062	1596.504150390625	159.7162170410156	1073.198486328125	1622.935180664062	42.20566558837891	1062.613403320312	1623.876953125	142.8238677978516	891.6815795898438	1587.8076171875	15.94375610351562	963.7261962890625	911.7225952148438	-56.56697082519531	950.3397216796875	917.5916137695312	282.4815673828125	1053.695678710938	946.744873046875	239.2425384521484	1077.85498046875	939.9741821289062	-0.999797523021698	986.6611938476562	453.2803955078125	-42.95294952392578	966.505615234375	585.4154052734375	-52.1822509765625	898.5167846679688	38.42047119140625	-21.93734169006348	941.3187255859375	239.2256469726562	-44.73520278930664	1105.095581054688	31.93148422241211	37.16997528076172	1024.286010742188	34.1766357421875	-34.98196411132812	864.7870483398438	33.05230331420898	45.46380233764648	977.269775390625	453.0132751464844	256.5411987304688	1040.298461914062	714.4598388671875	277.9424438476562	903.7308959960938	44.47365570068359	227.9845886230469	977.3101806640625	334.6243286132812	248.0911102294922	1097.005859375	32.39165115356445	182.5218811035156	1042.167846679688	30.10601043701172	140.5052642822266	1002.672180175781	28.98191261291504	251.8251037597656	853.0576782226562	44.43991470336914	180.7063751220703	1035.477416992188	19.61288833618164	77.56735992431641	nan	nan	nan	nan	nan	nan	
137	1.36	868.3504638671875	972.3898315429688	173.3909149169922	870.7450561523438	972.2625732421875	44.53104019165039	867.9864501953125	1023.438598632812	113.1619491577148	1086.225463867188	1217.70068359375	94.98574829101562	848.4180908203125	1142.7431640625	102.811393737793	876.7208862304688	1392.082763671875	81.18316650390625	1036.739501953125	1340.786865234375	88.01762390136719	835.71533203125	1254.203125	152.7042694091797	870.240966796875	1351.61181640625	-19.87284088134766	955.6705322265625	1371.631469726562	-76.19677734375	945.744140625	1249.293701171875	-141.3761596679688	976.1730346679688	1045.5927734375	-144.4015960693359	911.1767578125	1031.875366210938	-90.81456756591797	1076.892822265625	806.92236328125	-82.97242736816406	1043.319213867188	793.769287109375	-142.2706909179688	996.7813720703125	942.2489624023438	-146.1216430664062	1084.118774414062	646.271728515625	-74.6630859375	1041.808837890625	723.2568969726562	-134.7767944335938	1091.912963867188	728.699462890625	-96.02169799804688	938.394287109375	1383.771240234375	244.4598846435547	930.7454223632812	1320.38037109375	310.4938049316406	951.443115234375	1052.6005859375	346.4767761230469	903.3759155273438	1043.500244140625	265.3879699707031	1062.770385742188	827.7335205078125	287.3140258789062	1035.983520507812	811.3441772460938	357.3304138183594	980.8237915039062	985.9102172851562	352.9423828125	1084.428833007812	654.613037109375	295.6748962402344	1095.638305664062	727.4349975585938	297.9643249511719	1052.258422851562	727.874267578125	352.7962951660156	902.8375854492188	1596.62939453125	159.7925872802734	1072.886962890625	1623.163696289062	42.38429641723633	1062.210693359375	1624.00537109375	142.9963226318359	891.387451171875	1588.036743164062	15.97053146362305	963.5352783203125	911.8150634765625	-56.05077743530273	949.692626953125	917.8524169921875	282.9984436035156	1053.06201171875	946.8049926757812	239.7661437988281	1077.404418945312	939.9031982421875	-0.5535265803337097	987.6189575195312	453.1201782226562	-43.0115966796875	967.0159301757812	585.1327514648438	-52.2007942199707	898.5545654296875	38.38501739501953	-22.13630104064941	942.0632934570312	239.1380004882812	-44.90268707275391	1105.085327148438	31.92438125610352	37.17497634887695	1024.250122070312	34.04693222045898	-35.01343154907227	864.83349609375	33.13491821289062	45.25521850585938	978.1214599609375	452.997802734375	256.5380554199219	1039.907836914062	714.743408203125	278.4253234863281	903.8116455078125	44.57763290405273	227.9125213623047	978.2313232421875	334.4599914550781	248.0795593261719	1097.015625	32.37620544433594	182.5600128173828	1042.189208984375	30.09071159362793	140.4817352294922	1002.705627441406	29.04950523376465	251.7835540771484	853.1553344726562	44.59304046630859	180.6752471923828	1035.46533203125	19.61504364013672	77.56153869628906	nan	nan	nan	nan	nan	nan	
138	1.37	867.6422729492188	972.6226806640625	173.8570098876953	870.3297119140625	972.5039672851562	44.98126983642578	867.7080688476562	1023.652038574219	113.5645370483398	1085.857788085938	1217.760620117188	95.19298553466797	848.22509765625	1142.952514648438	103.1344604492188	876.4241943359375	1392.282470703125	81.37335968017578	1036.454711914062	1340.912719726562	88.09181976318359	835.4779052734375	1254.407592773438	152.9633941650391	869.8907470703125	1351.733276367188	-19.68571281433105	955.3037719726562	1371.717651367188	-76.01215362548828	945.2726440429688	1249.38134765625	-141.2072601318359	975.7335205078125	1045.708251953125	-144.2639007568359	910.8043212890625	1032.0048828125	-90.68425750732422	1076.685546875	807.1229858398438	-82.74149322509766	1043.1357421875	793.9511108398438	-142.0335388183594	996.3882446289062	942.32666015625	-145.94970703125	1084.12109375	646.5684814453125	-74.37331390380859	1041.668334960938	723.4576416015625	-134.5119171142578	1091.82666015625	728.9505004882812	-95.75780487060547	938.329345703125	1383.947143554688	244.6153717041016	930.6881713867188	1320.630126953125	310.6695556640625	951.5277709960938	1052.852172851562	346.899169921875	903.2380981445312	1043.678344726562	266.0108337402344	1062.817504882812	828.0341796875	287.6178894042969	1036.236328125	811.6728515625	357.8163757324219	981.0098266601562	986.3173217773438	353.4984436035156	1084.456420898438	654.8728637695312	296.1686096191406	1095.735107421875	727.7086181640625	298.2793579101562	1052.649169921875	728.314453125	353.39404296875	902.3923950195312	1596.745483398438	159.873779296875	1072.564575195312	1623.40625	42.6249885559082	1061.778442382812	1624.138671875	143.2151794433594	891.0878295898438	1588.281005859375	15.98903560638428	963.2131958007812	911.9495849609375	-55.50881958007812	948.9420776367188	918.1175537109375	283.5641479492188	1052.3623046875	946.8643798828125	240.3423156738281	1076.865478515625	939.8626098632812	-0.03859208524227142	988.7316284179688	452.955322265625	-42.98065185546875	967.68115234375	584.845458984375	-52.12974548339844	898.5958862304688	38.36551284790039	-22.33516502380371	942.9058227539062	239.0600891113281	-45.02658462524414	1105.079345703125	31.91753196716309	37.17769622802734	1024.211791992188	33.91672515869141	-35.04796981811523	864.8837280273438	33.22749328613281	45.04103088378906	979.1026611328125	452.9601440429688	256.5452575683594	1039.413696289062	715.0313110351562	278.95703125	903.9115600585938	44.692626953125	227.8260803222656	979.2310791015625	334.2717590332031	248.0755920410156	1097.025146484375	32.35557174682617	182.6091156005859	1042.209228515625	30.07512474060059	140.4589996337891	1002.742980957031	29.12190246582031	251.7405548095703	853.2553100585938	44.75925827026367	180.6281280517578	1035.456665039062	19.61879539489746	77.55609130859375	nan	nan	nan	nan	nan	nan	
